<svg xmlns="http://www.w3.org/2000/svg" viewBox="0 0 881.13 295.81"><defs><style>.cls-1{fill:#108dc7;stroke:#108dc7;}.cls-1,.cls-2,.cls-4,.cls-5{stroke-miterlimit:10;}.cls-1,.cls-2{stroke-width:12px;}.cls-2,.cls-3{fill:#ef8e38;}.cls-2,.cls-5{stroke:#ef8e38;}.cls-4,.cls-5{fill:none;stroke-linecap:round;}.cls-4{stroke:#4ca2cd;stroke-width:25px;}.cls-5{stroke-width:33px;}</style></defs><title>Fichier 4</title><g id="Calque_2" data-name="Calque 2"><g id="Calque_1-2" data-name="Calque 1"><path class="cls-1" d="M28.55,56A10.75,10.75,0,0,1,39,45.55,10.53,10.53,0,0,1,49.47,56V90.33H70.72a9.81,9.81,0,1,1,0,19.61H49.47v90.21c0,14.05,7.84,21.57,19,21.57a9.81,9.81,0,1,1,0,19.61c-25.82,0-39.88-17.32-39.88-41.18V109.94H15.81a9.81,9.81,0,1,1,0-19.61H28.55Z"/><path class="cls-1" d="M132.49,112.56c6.54-15,22.88-26.15,45.43-26.15a10.13,10.13,0,0,1,0,20.27c-30.07,0-45.43,20.92-45.43,51v73.22a10.46,10.46,0,0,1-20.92,0V98.17a10.46,10.46,0,0,1,20.92,0Z"/><path class="cls-2" d="M233.16,230.88a10.46,10.46,0,0,1-20.92,0V98.17a10.46,10.46,0,0,1,20.92,0Z"/><path class="cls-1" d="M376,107V16.46a10.46,10.46,0,0,1,20.92,0V178.58c0,43.15-26.8,64.39-64.06,64.39-42.16,0-67-25.17-67-78.77s23.53-78.45,65.7-78.45C352.46,85.75,368.47,96.54,376,107Zm0,26.48s-12.42-28.76-43.15-28.76c-29.74,0-46.09,19.29-46.09,59.49,0,40.86,16,59.81,46.09,59.81C358,224,376,209.63,376,178.58Z"/><path class="cls-1" d="M559.36,149.49c0-22.23-10.13-63.74-62.43-63.74-42.49,0-67.33,28.11-67.33,78.45,0,54.91,27.13,78.77,70.6,78.77,29.09,0,46.09-13.4,51-18.3,2-2,3.6-3.92,3.6-7.52a9.49,9.49,0,0,0-9.48-9.48,9.12,9.12,0,0,0-5.88,2c-9.15,6.86-20.26,14.05-39.22,14.05-30.72,0-49.36-20.92-49.36-53.28h95.44C559.36,170.41,559.36,159,559.36,149.49Zm-108.52,2.61c2-29.09,17.65-47.4,46.09-47.4,33.67,0,41.84,23.86,41.84,47.4Z"/><path class="cls-1" d="M608.38,122c-3.27,3.6-5.56,4.58-8.5,4.58a9.49,9.49,0,0,1-9.48-9.48,10.13,10.13,0,0,1,1.63-5.56c9.15-14.38,26.8-25.82,54.26-25.82,37.91,0,58.83,22.23,58.83,55.57V231.2a10.13,10.13,0,1,1-20.26,0V219.44C676.69,234.8,657.73,243,638.12,243c-34.65,0-56.55-16.67-56.55-46.74,0-28.76,21.9-46.09,57.2-46.09h46.09v-8.83c0-22.23-14.71-36-38.57-36C629,105.36,618.51,110.59,608.38,122Zm76.48,60.14V168.45H638.78c-21.25,0-36,8.83-36,27.78,0,17,11.77,27.78,37.26,27.78C663,224,684.86,210,684.86,182.18Z"/><circle class="cls-3" cx="223.13" cy="53.81" r="18"/><circle class="cls-3" cx="224.13" cy="277.81" r="18"/><path class="cls-4" d="M255.63,24.31"/><line class="cls-5" x1="274.63" y1="279.31" x2="648.63" y2="279.31"/><g id="yvJOgC.tif"><path class="cls-3" d="M881.13,238.81c-4.26,7.2-10.46,11.67-18.46,14.28-39,12.71-78,25.65-117,38.49-10.23,3.37-20.47.85-30.67-.18a76.9,76.9,0,0,1-18.5-3.84l60-20.86c-3.07-3.77-5.81-7.17-8.59-10.53-5.74-6.92-11.57-13.77-17.23-20.75-1.16-1.43-4.15-3-1.23-5.21,2.57-2,3.31-6.85,8.6-4.67,18,7.41,36.26,14.13,54.1,21.85,7.24,3.14,13.49,3.34,20.86.61,15.26-5.66,30.85-10.43,46.33-15.52,7.61-2.5,15-2.53,21.84,2.33Z"/><path class="cls-3" d="M681.13,266.81c4-4.75,8.08-3.6,12.84-1,6.78,3.77,13.92,6.9,22.17,10.92-7.14,2.55-13.21,4.77-19.31,6.89-1.86.65-2.61-1.05-3.56-2.11-4.08-4.56-8.11-9.16-12.15-13.74Z"/></g></g></g></svg>